<?xml version="1.0" standalone="no"?><svg xmlns:xlink="http://www.w3.org/1999/xlink" xmlns="http://www.w3.org/2000/svg" viewBox="0 0 1000 545.4545454545455" preserveAspectRatio="xMaxYMax slice"><g transform="scale(1.4781966001478197)"><rect x="0" y="0" width="676.5" height="369" fill="#ffffff"/><circle cx="30.75" cy="30.75" r="6.15" fill="#ff537c"/><circle cx="92.25" cy="30.75" r="6.15" fill="#ff527b"/><circle cx="153.75" cy="30.75" r="6.15" fill="#9eaef2"/><circle cx="215.25" cy="30.75" r="6.15" fill="#5e79ea"/><circle cx="276.75" cy="30.75" r="6.15" fill="#fdfdff"/><circle cx="338.25" cy="30.75" r="6.15" fill="#b5c2f5"/><circle cx="399.75" cy="30.75" r="6.15" fill="#4f6de8"/><circle cx="461.25" cy="30.75" r="6.15" fill="#758ced"/><circle cx="522.75" cy="30.75" r="6.15" fill="#fdfdff"/><circle cx="584.25" cy="30.75" r="6.15" fill="#c6d0f8"/><circle cx="645.75" cy="30.75" r="6.15" fill="#b4c1f5"/><circle cx="30.75" cy="92.25" r="6.15" fill="#ffbdcd"/><circle cx="92.25" cy="92.25" r="6.15" fill="#96a8f1"/><circle cx="153.75" cy="92.25" r="6.15" fill="#ff7c9b"/><circle cx="215.25" cy="92.25" r="6.15" fill="#ff83a0"/><circle cx="276.75" cy="92.25" r="6.15" fill="#ffc8d5"/><circle cx="338.25" cy="92.25" r="6.15" fill="#768ded"/><circle cx="399.75" cy="92.25" r="6.15" fill="#ffe5eb"/><circle cx="461.25" cy="92.25" r="6.15" fill="#3053e4"/><circle cx="522.75" cy="92.25" r="6.15" fill="#edf0fd"/><circle cx="584.25" cy="92.25" r="6.15" fill="#f0f2fd"/><circle cx="645.75" cy="92.25" r="6.15" fill="#ff4672"/><circle cx="30.75" cy="153.75" r="6.15" fill="#c3cdf7"/><circle cx="92.25" cy="153.75" r="6.15" fill="#2348e2"/><circle cx="153.75" cy="153.75" r="6.15" fill="#fff1f5"/><circle cx="215.25" cy="153.75" r="6.15" fill="#fcfcff"/><circle cx="276.75" cy="153.75" r="6.15" fill="#3456e5"/><circle cx="338.25" cy="153.75" r="6.15" fill="#ff9ab2"/><circle cx="399.75" cy="153.75" r="6.15" fill="#778eed"/><circle cx="461.25" cy="153.75" r="6.15" fill="#ff7e9d"/><circle cx="522.75" cy="153.75" r="6.15" fill="#ffe0e7"/><circle cx="584.25" cy="153.75" r="6.15" fill="#ffd6e0"/><circle cx="645.75" cy="153.75" r="6.15" fill="#ff9bb3"/><circle cx="30.75" cy="215.25" r="6.15" fill="#aab8f4"/><circle cx="92.25" cy="215.25" r="6.15" fill="#ffcbd8"/><circle cx="153.75" cy="215.25" r="6.15" fill="#ffc7d4"/><circle cx="215.25" cy="215.25" r="6.15" fill="#5875e9"/><circle cx="276.75" cy="215.25" r="6.15" fill="#264be3"/><circle cx="338.25" cy="215.25" r="6.15" fill="#8b9ff0"/><circle cx="399.75" cy="215.25" r="6.15" fill="#526fe8"/><circle cx="461.25" cy="215.25" r="6.15" fill="#5572e9"/><circle cx="522.75" cy="215.25" r="6.15" fill="#ff7b9a"/><circle cx="584.25" cy="215.25" r="6.15" fill="#a3b2f3"/><circle cx="645.75" cy="215.25" r="6.15" fill="#ff89a5"/><circle cx="30.75" cy="276.75" r="6.15" fill="#5975e9"/><circle cx="92.25" cy="276.75" r="6.15" fill="#ff6287"/><circle cx="153.75" cy="276.75" r="6.15" fill="#ffc1d0"/><circle cx="215.25" cy="276.75" r="6.15" fill="#fff5f7"/><circle cx="276.75" cy="276.75" r="6.15" fill="#ffe1e8"/><circle cx="338.25" cy="276.75" r="6.15" fill="#ffd8e1"/><circle cx="399.75" cy="276.75" r="6.15" fill="#ff97b0"/><circle cx="461.25" cy="276.75" r="6.15" fill="#ff3665"/><circle cx="522.75" cy="276.75" r="6.15" fill="#1a40e1"/><circle cx="584.25" cy="276.75" r="6.15" fill="#b5c2f5"/><circle cx="645.75" cy="276.75" r="6.15" fill="#b3c0f5"/><circle cx="30.75" cy="338.25" r="6.15" fill="#3859e5"/><circle cx="92.25" cy="338.25" r="6.15" fill="#ff426f"/><circle cx="153.75" cy="338.25" r="6.15" fill="#ffd0db"/><circle cx="215.25" cy="338.25" r="6.15" fill="#768ded"/><circle cx="276.75" cy="338.25" r="6.15" fill="#ff8aa6"/><circle cx="338.25" cy="338.25" r="6.15" fill="#ff6d90"/><circle cx="399.75" cy="338.25" r="6.15" fill="#5773e9"/><circle cx="461.25" cy="338.25" r="6.15" fill="#607bea"/><circle cx="522.75" cy="338.25" r="6.15" fill="#2348e2"/><circle cx="584.25" cy="338.25" r="6.15" fill="#ff3c6a"/><circle cx="645.75" cy="338.25" r="6.15" fill="#ff517a"/></g></svg>